<svg width="59" height="58" viewBox="0 0 59 58" fill="none" xmlns="http://www.w3.org/2000/svg">
<path d="M55.9474 9.08967C55.9339 8.86836 55.8398 8.65967 55.6828 8.5031C55.5258 8.34654 55.3169 8.25295 55.0955 8.24006C43.7108 7.56037 34.6052 10.9815 30.7355 17.3683C28.0984 21.7228 28.2048 26.8658 31.0165 31.9158C29.0323 34.0955 27.722 36.8033 27.2442 39.7119L21.9223 34.3899C23.8775 30.7649 23.9183 27.0651 22.0174 23.925C19.2035 19.2782 12.6105 16.7951 4.375 17.2776C4.15483 17.2915 3.94729 17.3853 3.79129 17.5413C3.63529 17.6973 3.54156 17.9048 3.52766 18.125C3.04508 26.356 5.5282 32.949 10.175 35.7629C11.6664 36.6784 13.3822 37.1631 15.1322 37.163C17.0639 37.1302 18.9569 36.6162 20.6399 35.6677L27.0312 42.0658V48.9375C27.0312 49.1778 27.1267 49.4083 27.2967 49.5783C27.4666 49.7482 27.6971 49.8437 27.9375 49.8437C28.1779 49.8437 28.4084 49.7482 28.5783 49.5783C28.7483 49.4083 28.8438 49.1778 28.8438 48.9375V42.2561C28.8352 38.9104 30.0698 35.6807 32.3079 33.1936C34.9111 34.6346 37.5347 35.3596 40.0654 35.3596C42.4494 35.36 44.787 34.7005 46.8192 33.4542C53.2037 29.5822 56.618 20.4767 55.9474 9.08967ZM11.113 34.2109C7.20023 31.8456 5.05469 26.211 5.29937 19.0494C12.461 18.8047 18.0956 20.9502 20.4609 24.8629C21.9291 27.2894 21.954 30.1577 20.5652 33.0396L14.0764 26.5463C13.904 26.3901 13.6782 26.3062 13.4456 26.3119C13.213 26.3176 12.9916 26.4126 12.8271 26.5771C12.6626 26.7416 12.5677 26.963 12.5619 27.1956C12.5562 27.4281 12.6401 27.654 12.7963 27.8264L19.2919 34.3219C16.4077 35.7108 13.5395 35.6858 11.113 34.2109ZM45.879 31.9C42.2427 34.1022 37.9289 34.0727 33.6265 31.8433L46.7037 18.7639C46.8666 18.5927 46.9562 18.3646 46.9534 18.1283C46.9506 17.892 46.8556 17.6661 46.6886 17.4988C46.5216 17.3316 46.2959 17.2362 46.0596 17.2329C45.8233 17.2297 45.5951 17.3189 45.4236 17.4815L32.3441 30.561C30.1148 26.2563 30.0785 21.9516 32.2875 18.3085C35.7109 12.6444 43.8603 9.57904 54.1802 10.0072C54.6107 20.3272 51.534 28.4766 45.879 31.9Z" fill="black"/>
</svg>
